<?xml version="1.0" standalone="no"?>
<!DOCTYPE svg PUBLIC "-//W3C//DTD SVG 20010904//EN"
 "http://www.w3.org/TR/2001/REC-SVG-20010904/DTD/svg10.dtd">
<svg version="1.0" xmlns="http://www.w3.org/2000/svg"
 width="134.000000pt" height="134.000000pt" viewBox="0 0 134.000000 134.000000"
 preserveAspectRatio="xMidYMid meet">
<metadata>
Created by potrace 1.14, written by Peter Selinger 2001-2017
</metadata>
<g transform="translate(0.000000,134.000000) scale(0.100000,-0.100000)"
fill="#000000" stroke="none">
<path d="M619 1311 c-24 -15 -64 -39 -89 -53 -25 -14 -90 -51 -145 -83 -55
-32 -116 -67 -135 -78 -19 -11 -63 -36 -97 -55 l-63 -36 0 -336 0 -335 112
-65 c61 -36 132 -77 157 -91 25 -14 102 -58 171 -98 69 -40 132 -73 140 -73 8
-1 83 39 165 87 83 49 171 100 196 114 25 14 85 49 132 76 l87 50 0 336 0 335
-37 21 c-21 11 -146 83 -278 160 -132 76 -247 142 -256 145 -9 3 -35 -6 -60
-21z"/>
</g>
</svg>
